<?xml version="1.0" standalone="no"?>
<!DOCTYPE svg PUBLIC "-//W3C//DTD SVG 20010904//EN"
 "http://www.w3.org/TR/2001/REC-SVG-20010904/DTD/svg10.dtd">
<svg version="1.0" xmlns="http://www.w3.org/2000/svg"
 width="700.000000pt" height="700.000000pt" viewBox="0 0 700.000000 700.000000"
 preserveAspectRatio="xMidYMid meet">
<metadata>
Created by potrace 1.11, written by Peter Selinger 2001-2013
</metadata>
<g transform="translate(0.000000,700.000000) scale(0.100000,-0.100000)"
fill="#000000" stroke="none">
<path d="M3449 6346 c-49 -53 -151 -171 -214 -247 -44 -54 -178 -245 -230
-330 -252 -407 -424 -871 -491 -1319 -2 -19 -7 -46 -9 -60 -2 -14 -7 -52 -11
-85 -12 -107 -10 -119 23 -134 39 -17 232 -134 323 -194 114 -76 264 -191 371
-283 110 -94 98 -83 206 -188 l82 -78 118 110 c261 244 556 462 833 615 73 40
68 27 56 167 -10 114 -15 146 -36 260 -20 104 -22 117 -39 195 -24 111 -113
395 -146 470 -8 17 -26 59 -40 95 -65 158 -218 439 -314 575 -78 112 -106 150
-111 155 -3 3 -21 25 -40 50 -77 101 -250 290 -264 289 -6 -1 -36 -29 -67 -63z"/>
<path d="M603 4082 c-20 -3 -21 -7 -18 -100 6 -153 15 -268 30 -372 4 -25 9
-61 11 -80 38 -270 135 -606 252 -875 177 -405 424 -767 742 -1086 175 -175
208 -205 370 -328 420 -319 888 -532 1397 -636 l112 -23 111 23 c496 105 905
283 1310 571 100 71 149 108 259 199 76 62 316 306 399 406 218 261 420 585
536 859 11 25 30 69 43 97 34 80 110 311 144 442 70 274 104 512 114 804 l3
97 -27 1 c-105 3 -350 -14 -456 -33 -33 -5 -76 -12 -95 -14 -179 -23 -575
-138 -754 -219 -186 -84 -341 -161 -405 -200 -9 -5 -34 -21 -56 -34 -62 -38
-179 -115 -185 -122 -3 -3 -14 -11 -25 -17 -73 -38 -337 -265 -480 -412 -156
-160 -245 -267 -365 -437 -36 -51 -67 -93 -70 -93 -3 0 -16 17 -30 37 -28 43
-201 275 -210 283 -4 3 -40 43 -82 90 -464 523 -1076 897 -1748 1066 -133 34
-312 68 -420 80 -30 3 -66 7 -80 10 -14 2 -86 7 -160 10 -74 3 -137 7 -140 8
-3 1 -15 0 -27 -2z"/>
</g>
</svg>
